<?xml version="1.0" encoding="utf-8"?>
<!-- Generator: Adobe Illustrator 24.0.1, SVG Export Plug-In . SVG Version: 6.00 Build 0)  -->
<svg version="1.1" id="Layer_1" xmlns="http://www.w3.org/2000/svg" xmlns:xlink="http://www.w3.org/1999/xlink" x="0px" y="0px"
	 viewBox="0 0 86.2 64" style="enable-background:new 0 0 86.2 64;" xml:space="preserve">
<style type="text/css">
	.st0{fill:#FFFFFF;}
</style>
<g>
	<path class="st0" d="M81.9,26L39,1.4c-5.8-3.3-10.4-0.6-10.4,6.1v29.8c0,0.1,0,0.2,0.1,0.3h0.1c0.5-2,0.9-3.8,1.4-5.8l2-8.2h4.4
		l-5.4,18h-2.6v14.9c0,6.7,4.7,9.4,10.4,6.1L81.9,38C87.7,34.7,87.7,29.3,81.9,26z M50.1,41.6H38.4v-18h11.4v3.6h-7.1v3.3h6v3.6h-6
		V38h7.3V41.6z"/>
	<polygon class="st0" points="4.3,23.6 0,23.6 0,41.6 11.3,41.6 11.3,38 4.3,38 	"/>
	<rect x="14.4" y="23.6" class="st0" width="4.3" height="18"/>
	<path class="st0" d="M27.2,31.8l-2.1-8.2h-4.6l5.4,18h2.6v-4.3C28.1,35.4,27.7,33.6,27.2,31.8z"/>
</g>
</svg>
